<mxfile host="65bd71144e">
    <diagram name="第 1 页" id="_kCn5gWWrIlWfqqUU_DX">
        <mxGraphModel dx="1090" dy="654" grid="1" gridSize="10" guides="1" tooltips="1" connect="1" arrows="1" fold="1" page="1" pageScale="1" pageWidth="1100" pageHeight="1700" math="0" shadow="0">
            <root>
                <mxCell id="0"/>
                <mxCell id="1" parent="0"/>
                <mxCell id="6" value="&lt;font style=&quot;font-size: 14px;&quot;&gt;老師&lt;/font&gt;" style="shape=umlLifeline;participant=umlActor;perimeter=lifelinePerimeter;whiteSpace=wrap;html=1;container=1;collapsible=0;recursiveResize=0;verticalAlign=top;spacingTop=36;outlineConnect=0;size=70;" vertex="1" parent="1">
                    <mxGeometry x="130" y="100" width="40" height="460" as="geometry"/>
                </mxCell>
                <mxCell id="8" value="UI" style="shape=umlLifeline;perimeter=lifelinePerimeter;whiteSpace=wrap;html=1;container=1;collapsible=0;recursiveResize=0;outlineConnect=0;fontSize=14;" vertex="1" parent="1">
                    <mxGeometry x="220" y="90" width="100" height="470" as="geometry"/>
                </mxCell>
                <mxCell id="9" value="讀取資料" style="shape=umlLifeline;participant=umlControl;perimeter=lifelinePerimeter;whiteSpace=wrap;html=1;container=1;collapsible=0;recursiveResize=0;verticalAlign=top;spacingTop=36;outlineConnect=0;fontSize=14;size=60;align=center;" vertex="1" parent="1">
                    <mxGeometry x="370" y="80" width="60" height="480" as="geometry"/>
                </mxCell>
                <mxCell id="10" value="AI&lt;br&gt;" style="shape=umlLifeline;participant=umlControl;perimeter=lifelinePerimeter;whiteSpace=wrap;html=1;container=1;collapsible=0;recursiveResize=0;verticalAlign=top;spacingTop=36;outlineConnect=0;fontSize=14;size=60;align=center;" vertex="1" parent="1">
                    <mxGeometry x="630" y="80" width="60" height="480" as="geometry"/>
                </mxCell>
                <mxCell id="11" value="讀取資料" style="shape=umlLifeline;participant=umlControl;perimeter=lifelinePerimeter;whiteSpace=wrap;html=1;container=1;collapsible=0;recursiveResize=0;verticalAlign=top;spacingTop=36;outlineConnect=0;fontSize=14;size=60;align=center;" vertex="1" parent="1">
                    <mxGeometry x="500" y="80" width="60" height="480" as="geometry"/>
                </mxCell>
            </root>
        </mxGraphModel>
    </diagram>
</mxfile>